<?xml version="1.0" encoding="UTF-8" standalone="no"?>
<!-- Created with Inkscape (http://www.inkscape.org/) -->

<svg
   width="95.64669mm"
   height="11.439004mm"
   viewBox="0 0 95.64669 11.439004"
   version="1.1"
   id="svg1"
   sodipodi:docname="描画.svg"
   inkscape:version="1.4.2 (f4327f4, 2025-05-13)"
   xmlns:inkscape="http://www.inkscape.org/namespaces/inkscape"
   xmlns:sodipodi="http://sodipodi.sourceforge.net/DTD/sodipodi-0.dtd"
   xmlns:xlink="http://www.w3.org/1999/xlink"
   xmlns="http://www.w3.org/2000/svg"
   xmlns:svg="http://www.w3.org/2000/svg"
   xmlns:rdf="http://www.w3.org/1999/02/22-rdf-syntax-ns#"
   xmlns:cc="http://creativecommons.org/ns#"
   xmlns:dc="http://purl.org/dc/elements/1.1/">
  <defs
     id="defs1">
    <linearGradient
       id="linearGradient1"
       inkscape:collect="always">
      <stop
         style="stop-color:#001626;stop-opacity:1;"
         offset="0"
         id="stop1" />
      <stop
         style="stop-color:#0070c0;stop-opacity:1;"
         offset="1"
         id="stop2" />
    </linearGradient>
    <linearGradient
       inkscape:collect="always"
       xlink:href="#linearGradient1"
       id="linearGradient2"
       x1="44.939098"
       y1="22.900846"
       x2="52.947372"
       y2="14.892572"
       gradientUnits="userSpaceOnUse"
       gradientTransform="matrix(1.0062577,0,0,1.0062577,-1.1513656,-3.316813)" />
    <linearGradient
       inkscape:collect="always"
       xlink:href="#linearGradient1"
       id="linearGradient7"
       gradientUnits="userSpaceOnUse"
       gradientTransform="matrix(1.0062577,0,0,1.0062577,-4.6930333,-12.25848)"
       x1="44.939098"
       y1="22.900846"
       x2="52.947372"
       y2="14.892572" />
  </defs>
  <sodipodi:namedview
     id="base"
     pagecolor="#ffffff"
     bordercolor="#000000"
     borderopacity="0.3"
     inkscape:pageopacity="0.0"
     inkscape:pageshadow="2"
     inkscape:zoom="1.979899"
     inkscape:cx="365.92776"
     inkscape:cy="102.78302"
     inkscape:document-units="mm"
     inkscape:showpageshadow="2"
     inkscape:pagecheckerboard="0"
     inkscape:deskcolor="#d1d1d1"
     inkscape:window-width="1920"
     inkscape:window-height="1009"
     inkscape:window-x="-8"
     inkscape:window-y="-8"
     inkscape:window-maximized="1"
     inkscape:current-layer="layer1">
    <inkscape:page
       x="0"
       y="0"
       width="95.64669"
       height="11.439004"
       id="page2"
       margin="0"
       bleed="0" />
  </sodipodi:namedview>
  <metadata
     id="metadata1">
    <rdf:RDF>
      <cc:Work
         rdf:about="">
        <dc:format>image/svg+xml</dc:format>
        <dc:type
           rdf:resource="http://purl.org/dc/dcmitype/StillImage" />
      </cc:Work>
    </rdf:RDF>
  </metadata>
  <g
     inkscape:groupmode="layer"
     id="layer1"
     inkscape:label="Layer 1"
     style="display:none"
     transform="translate(-29.999998,-10.000001)">
    <text
       xml:space="preserve"
       style="font-style:normal;font-variant:normal;font-weight:bold;font-stretch:normal;font-size:15.1045px;font-family:Sans;-inkscape-font-specification:'Sans, Bold';font-variant-ligatures:normal;font-variant-caps:normal;font-variant-numeric:normal;font-variant-east-asian:normal;text-align:start;letter-spacing:-0.714375px;writing-mode:lr-tb;direction:ltr;text-anchor:start;display:inline;fill:#000000;stroke-width:1.261;stroke-dasharray:none"
       x="28.232037"
       y="24.439537"
       id="text1-7"><tspan
         sodipodi:role="line"
         id="tspan1-9"
         style="font-style:normal;font-variant:normal;font-weight:bold;font-stretch:normal;font-size:15.1045px;font-family:Sans;-inkscape-font-specification:'Sans, Bold';font-variant-ligatures:normal;font-variant-caps:normal;font-variant-numeric:normal;font-variant-east-asian:normal;letter-spacing:-0.714375px;stroke-width:1.261;stroke-dasharray:none"
         x="28.232037"
         y="24.439537">MOTSUTECH</tspan></text>
  </g>
  <g
     inkscape:groupmode="layer"
     id="layer5"
     inkscape:label="Layer 3"
     style="display:none"
     transform="translate(-29.999998,-10.000001)">
    <circle
       style="display:inline;fill:#001626;fill-opacity:1;stroke-width:1.18415;stroke-dasharray:none"
       id="path5-4-3"
       cx="47.506687"
       cy="18.930134"
       r="5.6627731" />
    <circle
       style="display:inline;fill:#001626;fill-opacity:1;stroke:none;stroke-width:0.860229;stroke-dasharray:none;stroke-opacity:1"
       id="circle6-6-7"
       cx="47.506687"
       cy="18.930134"
       r="4.11373" />
    <circle
       style="display:inline;fill:#ffffff;fill-opacity:1;stroke:none;stroke-width:0.550311;stroke-dasharray:none;stroke-opacity:1"
       id="circle7-0-8"
       cx="47.506687"
       cy="18.930134"
       r="2.6316628" />
    <rect
       style="display:inline;fill:#1951ea;fill-opacity:1;stroke:none;stroke-width:1.10194;stroke-dasharray:none;stroke-opacity:1"
       id="rect7-6-8"
       width="2.8063302"
       height="15.635267"
       x="46.103519"
       y="11.1125" />
    <rect
       style="display:inline;fill:#1951ea;fill-opacity:1;stroke:none;stroke-width:1.10194;stroke-dasharray:none;stroke-opacity:1"
       id="rect9-6-2"
       width="2.8063302"
       height="15.635267"
       x="17.474159"
       y="-55.345329"
       transform="rotate(90.063676)" />
    <rect
       style="display:inline;fill:#1951ea;fill-opacity:1;stroke:none;stroke-width:1.10194;stroke-dasharray:none;stroke-opacity:1"
       id="rect10-1-9"
       width="2.8063302"
       height="15.635267"
       x="45.573147"
       y="-28.028057"
       transform="rotate(45.004574)" />
    <rect
       style="display:inline;fill:#1951ea;fill-opacity:1;stroke:none;stroke-width:1.10194;stroke-dasharray:none;stroke-opacity:1"
       id="rect11-8-1"
       width="2.8063302"
       height="15.635267"
       x="-21.665787"
       y="-54.771458"
       transform="rotate(135.06825)" />
  </g>
  <g
     inkscape:groupmode="layer"
     id="layer2"
     inkscape:label="Layer 2"
     transform="translate(-29.999998,-10.000001)">
    <g
       id="text2"
       style="font-weight:bold;font-size:15.1045px;font-family:Sans;-inkscape-font-specification:'Sans, Bold';letter-spacing:-0.714375px;stroke-width:1.261"
       aria-label="M TSUTECH">
      <path
         style="fill:#001626"
         d="m 41.512756,21.210371 h -2.817344 v -7.353118 l -2.035567,4.771783 h -1.95444 l -2.035567,-4.771783 v 7.353118 H 30 V 10.228633 h 3.289359 l 2.470706,5.509307 2.463332,-5.509307 h 3.289359 z m 22.330628,-8.857668 h -3.429489 v 8.857668 h -2.832094 v -8.857668 h -3.429488 v -2.12407 h 9.691071 z m 9.780594,5.406054 q 0,1.622553 -1.379171,2.640337 -1.371795,1.010409 -3.731873,1.010409 -1.36442,0 -2.382204,-0.236008 -1.010408,-0.243383 -1.895438,-0.612145 v -2.632963 h 0.309761 q 0.877654,0.700649 1.961815,1.076786 1.091536,0.376137 2.094569,0.376137 0.258133,0 0.678522,-0.04425 0.420389,-0.04425 0.685898,-0.147505 0.324511,-0.132754 0.531018,-0.331886 0.213882,-0.199131 0.213882,-0.590019 0,-0.361387 -0.309761,-0.619521 -0.302385,-0.265509 -0.892404,-0.405638 -0.619521,-0.147505 -1.312794,-0.272884 -0.685897,-0.132755 -1.290667,-0.331886 -1.386546,-0.44989 -1.998691,-1.216916 -0.60477,-0.7744 -0.60477,-1.917563 0,-1.534051 1.371795,-2.500208 1.379171,-0.973532 3.540117,-0.973532 1.084161,0 2.138821,0.213882 1.062035,0.206507 1.836436,0.523642 v 2.529709 h -0.302385 q -0.663772,-0.531017 -1.629929,-0.885029 -0.958782,-0.361387 -1.961815,-0.361387 -0.354012,0 -0.708024,0.05163 -0.346636,0.04425 -0.671147,0.177005 -0.287634,0.110629 -0.494141,0.339262 -0.206507,0.221257 -0.206507,0.508892 0,0.435139 0.331886,0.671147 0.331886,0.228632 1.253791,0.420389 0.60477,0.125379 1.157914,0.243383 0.560518,0.118004 1.202165,0.32451 1.261166,0.413014 1.858561,1.128413 0.60477,0.708023 0.60477,1.843811 z m 10.842633,-0.523643 q 0,2.035568 -1.239041,3.119729 -1.239041,1.084161 -3.650746,1.084161 -2.411705,0 -3.650746,-1.084161 -1.231666,-1.084161 -1.231666,-3.112353 v -7.013857 h 2.846845 v 6.851601 q 0,1.143163 0.47939,1.703682 0.479391,0.560518 1.556177,0.560518 1.062035,0 1.548801,-0.538393 0.494142,-0.538392 0.494142,-1.725807 v -6.851601 h 2.846844 z"
         id="path7" />
      <path
         style="fill:#0070c0"
         d="m 94.992107,12.352703 h -3.429488 v 8.857668 h -2.832094 v -8.857668 h -3.429488 v -2.12407 h 9.69107 z m 8.932443,8.857668 H 95.981415 V 10.228633 h 7.943135 v 2.12407 h -5.125792 v 1.895438 h 4.757032 v 2.12407 h -4.757032 v 2.71409 h 5.125792 z m 6.624,0.213882 q -1.22429,0 -2.2642,-0.361387 -1.03254,-0.361387 -1.77744,-1.076785 -0.7449,-0.715399 -1.15791,-1.78481 -0.40564,-1.06941 -0.40564,-2.470706 0,-1.305419 0.39089,-2.367454 0.39089,-1.062035 1.13579,-1.821685 0.71539,-0.730149 1.77005,-1.128412 1.06204,-0.398263 2.31583,-0.398263 0.69327,0 1.24642,0.08113 0.56052,0.07375 1.03253,0.199132 0.49414,0.140129 0.89241,0.317135 0.40563,0.169631 0.70802,0.317136 v 2.662463 h -0.32451 q -0.20651,-0.177006 -0.52364,-0.420389 -0.30976,-0.243383 -0.70803,-0.479391 -0.40564,-0.236008 -0.87765,-0.398263 -0.47202,-0.162255 -1.01041,-0.162255 -0.59739,0 -1.13579,0.191756 -0.53839,0.184381 -0.99566,0.61952 -0.43513,0.420389 -0.70802,1.113662 -0.26551,0.693273 -0.26551,1.681556 0,1.032534 0.28764,1.725807 0.29501,0.693273 0.73752,1.091536 0.44989,0.405639 1.00303,0.582644 0.55315,0.169631 1.09154,0.169631 0.51627,0 1.01778,-0.15488 0.5089,-0.15488 0.93666,-0.420389 0.36139,-0.213882 0.67115,-0.457265 0.30976,-0.243383 0.50889,-0.420389 h 0.29501 v 2.625587 q -0.41301,0.184381 -0.78915,0.346636 -0.37614,0.162256 -0.78915,0.28026 -0.5384,0.15488 -1.01041,0.236007 -0.47202,0.08113 -1.29804,0.08113 z m 15.09814,-0.213882 h -2.83209 v -4.83816 h -4.18176 v 4.83816 h -2.8321 V 10.228633 h 2.8321 v 4.019508 h 4.18176 v -4.019508 h 2.83209 z"
         id="path8" />
    </g>
    <path
       d="m 48.098139,10 c -0.476181,5.7e-5 -0.950476,0.0598 -1.411795,0.17784 l -0.182959,1.124887 c -0.128927,0.04687 -0.25573,0.0994 -0.380039,0.157419 h -5.87e-4 l -0.92413,-0.667669 c -0.823101,0.486659 -1.5105,1.172626 -1.998872,1.994713 l 0.665089,0.925583 v 5.87e-4 c -0.05916,0.125991 -0.112666,0.25456 -0.160355,0.385325 l -1.125092,0.181386 c -0.11908,0.463275 -0.179354,0.9397 -0.179399,1.418035 2.6e-5,0.474201 0.05924,0.946543 0.17628,1.406074 l 1.124686,0.184031 c 0.04775,0.132364 0.101455,0.262504 0.160944,0.390024 l -0.665793,0.924629 c 0.487302,0.822721 1.173806,1.509583 1.996273,1.997313 l 0.925082,-0.666379 c 0.126194,0.05898 0.25496,0.112287 0.385913,0.159768 l 0.182959,1.124889 c 0.461319,0.118036 0.935614,0.177781 1.411795,0.177839 0.47618,-5.8e-5 0.950475,-0.0598 1.411794,-0.177839 l 0.182959,-1.124889 c 0.128928,-0.04687 0.25573,-0.0994 0.380039,-0.157419 h 5.87e-4 l 0.92413,0.667669 c 0.823102,-0.486658 1.5105,-1.172626 1.998873,-1.994712 L 52.33143,17.683521 v -5.88e-4 c 0.05915,-0.125798 0.11265,-0.254171 0.160357,-0.384736 l 1.125091,-0.181957 c 0.119081,-0.463275 0.179355,-0.9397 0.179399,-1.418034 -6.7e-5,-0.474027 -0.05929,-0.946192 -0.176279,-1.405555 l -1.124686,-0.18453 c -0.04775,-0.132364 -0.101455,-0.262504 -0.160944,-0.390024 L 53.00016,12.793463 C 52.512794,11.970921 51.826295,11.28423 51.003888,10.796637 l -0.925083,0.665859 c -0.126194,-0.05898 -0.25496,-0.112287 -0.385913,-0.159769 L 49.509933,10.17784 C 49.048614,10.059803 48.574319,10.000057 48.098139,10 Z m 0.705063,2.591359 c 0.35209,0.07994 0.688031,0.219134 0.993469,0.411652 0.403456,0.254309 0.744671,0.595952 0.998475,0.999725 0.19182,0.304756 0.330586,0.639826 0.4104,0.990968 0.0524,0.231149 0.07883,0.467423 0.07882,0.704437 -1.24e-4,0.238315 -0.02699,0.475866 -0.08008,0.70819 -0.08032,0.352169 -0.219947,0.688115 -0.412904,0.99347 -0.253461,0.401094 -0.593307,0.740513 -0.99472,0.993469 -0.306505,0.193348 -0.643751,0.332985 -0.997222,0.412903 h -6.26e-4 c -0.229949,0.05191 -0.464948,0.07814 -0.700683,0.07821 -0.237247,-1.5e-4 -0.473733,-0.0268 -0.705063,-0.07945 -0.352089,-0.07994 -0.688031,-0.219134 -0.99347,-0.411652 -0.403387,-0.254131 -0.744597,-0.595553 -0.998474,-0.9991 -0.191665,-0.304989 -0.330222,-0.640273 -0.409776,-0.991593 -0.05261,-0.231125 -0.07925,-0.4674 -0.07945,-0.704436 1.24e-4,-0.238317 0.02699,-0.475866 0.08009,-0.708192 0.08032,-0.352169 0.219947,-0.688113 0.412904,-0.993469 0.253461,-0.401093 0.593308,-0.740513 0.99472,-0.993469 0.306697,-0.193413 0.64416,-0.333053 0.997848,-0.412903 0.229949,-0.05191 0.471354,-0.07129 0.701419,-0.07839 0.230065,-0.007 0.472998,0.02698 0.704327,0.07963 z"
       style="fill:url(#linearGradient2);stroke-width:1.10884"
       id="path1"
       sodipodi:nodetypes="ccccccccccccccccccccccccccccccccccccccccccsccccsccccccccccscszc"
       inkscape:label="Oロゴ" />
  </g>
  <g
     inkscape:groupmode="layer"
     id="layer3"
     inkscape:label="Layer 4"
     style="display:none"
     transform="translate(-29.999998,-10.000001)">
    <text
       xml:space="preserve"
       style="font-style:normal;font-variant:normal;font-weight:bold;font-stretch:normal;font-size:15.1045px;font-family:Sans;-inkscape-font-specification:'Sans, Bold';font-variant-ligatures:normal;font-variant-caps:normal;font-variant-numeric:normal;font-variant-east-asian:normal;text-align:start;letter-spacing:-0.714375px;writing-mode:lr-tb;direction:ltr;text-anchor:start;display:inline;fill:#000000;stroke-width:1.261;stroke-dasharray:none"
       x="25.057035"
       y="12.268704"
       id="text2-1"
       inkscape:export-filename="text2.svg"
       inkscape:export-xdpi="96"
       inkscape:export-ydpi="96"><tspan
         sodipodi:role="line"
         id="tspan2-5"
         style="font-style:normal;font-variant:normal;font-weight:bold;font-stretch:normal;font-size:15.1045px;font-family:Sans;-inkscape-font-specification:'Sans, Bold';font-variant-ligatures:normal;font-variant-caps:normal;font-variant-numeric:normal;font-variant-east-asian:normal;letter-spacing:-0.714375px;stroke-width:1.261;stroke-dasharray:none"
         x="25.057035"
         y="12.268704"><tspan
           style="fill:#001626;fill-opacity:1"
           id="tspan4-2">M<tspan
   style="letter-spacing:6.48758px"
   id="tspan6-7"> </tspan>TSU</tspan><tspan
           style="fill:#0070c0;fill-opacity:1"
           id="tspan3-6">TECH</tspan></tspan></text>
    <path
       d="m 44.556471,1.0583333 c -0.476181,5.7e-5 -0.950476,0.0598 -1.411795,0.17784 l -0.182959,1.124887 c -0.128927,0.04687 -0.25573,0.0994 -0.380039,0.157419 h -5.87e-4 l -0.92413,-0.667669 c -0.823101,0.486659 -1.5105,1.172626 -1.998872,1.994713 l 0.665089,0.925583 v 5.87e-4 c -0.05916,0.125991 -0.112666,0.25456 -0.160355,0.385325 l -1.125092,0.181386 c -0.11908,0.463275 -0.179354,0.9397 -0.179399,1.418035 2.6e-5,0.474201 0.05924,0.946543 0.17628,1.406074 l 1.124686,0.184031 c 0.04775,0.132364 0.101455,0.262504 0.160944,0.390024 l -0.665793,0.924629 c 0.487302,0.8227207 1.173806,1.5095827 1.996273,1.9973127 l 0.925082,-0.666379 c 0.126194,0.05898 0.25496,0.112287 0.385913,0.159768 l 0.182959,1.124889 c 0.461319,0.118036 0.935614,0.177781 1.411795,0.177839 0.47618,-5.8e-5 0.950475,-0.0598 1.411794,-0.177839 l 0.182959,-1.124889 c 0.128928,-0.04687 0.25573,-0.0994 0.380039,-0.157419 h 5.87e-4 l 0.92413,0.667669 c 0.823102,-0.486658 1.5105,-1.172626 1.998873,-1.9947117 l -0.665091,-0.925583 v -5.88e-4 c 0.05915,-0.125798 0.11265,-0.254171 0.160357,-0.384736 l 1.125091,-0.181957 c 0.119081,-0.463275 0.179355,-0.9397 0.179399,-1.418034 -6.7e-5,-0.474027 -0.05929,-0.946192 -0.176279,-1.405555 l -1.124686,-0.18453 C 48.905894,5.0340903 48.852189,4.9039503 48.7927,4.7764303 l 0.665792,-0.924634 C 48.971126,3.0292543 48.284627,2.3425633 47.46222,1.8549703 l -0.925083,0.665859 c -0.126194,-0.05898 -0.25496,-0.112287 -0.385913,-0.159769 l -0.182959,-1.124887 c -0.461319,-0.118037 -0.935614,-0.177783 -1.411794,-0.17784 z m 0.705063,2.591359 c 0.35209,0.07994 0.688031,0.219134 0.993469,0.411652 0.403456,0.254309 0.744671,0.595952 0.998475,0.999725 0.19182,0.304756 0.330586,0.639826 0.4104,0.990968 0.0524,0.231149 0.07883,0.467423 0.07882,0.704437 -1.24e-4,0.238315 -0.02699,0.475866 -0.08008,0.70819 -0.08032,0.352169 -0.219947,0.688115 -0.412904,0.99347 -0.253461,0.401094 -0.593307,0.740513 -0.99472,0.993469 -0.306505,0.193348 -0.643751,0.332985 -0.997222,0.412903 h -6.26e-4 c -0.229949,0.05191 -0.464948,0.07814 -0.700683,0.07821 -0.237247,-1.5e-4 -0.473733,-0.0268 -0.705063,-0.07945 -0.352089,-0.07994 -0.688031,-0.219134 -0.99347,-0.411652 -0.403387,-0.254131 -0.744597,-0.595553 -0.998474,-0.9991 -0.191665,-0.304989 -0.330222,-0.640273 -0.409776,-0.991593 -0.05261,-0.231125 -0.07925,-0.4674 -0.07945,-0.704436 1.24e-4,-0.238317 0.02699,-0.475866 0.08009,-0.708192 0.08032,-0.352169 0.219947,-0.688113 0.412904,-0.993469 0.253461,-0.401093 0.593308,-0.740513 0.99472,-0.993469 0.306697,-0.193413 0.64416,-0.333053 0.997848,-0.412903 0.229949,-0.05191 0.471354,-0.07129 0.701419,-0.07839 0.230065,-0.007 0.472998,0.02698 0.704327,0.07963 z"
       style="fill:url(#linearGradient7);stroke-width:1.10884"
       id="path1-1"
       sodipodi:nodetypes="ccccccccccccccccccccccccccccccccccccccccccsccccsccccccccccscszc"
       inkscape:label="Oロゴ" />
  </g>
</svg>
