<?xml version="1.0" encoding="UTF-8" standalone="no"?>
<!-- Created with Inkscape (http://www.inkscape.org/) -->

<svg
   width="95.64669mm"
   height="11.439004mm"
   viewBox="0 0 95.64669 11.439004"
   version="1.1"
   id="svg1"
   xmlns:xlink="http://www.w3.org/1999/xlink"
   xmlns="http://www.w3.org/2000/svg"
   xmlns:svg="http://www.w3.org/2000/svg"
   xmlns:rdf="http://www.w3.org/1999/02/22-rdf-syntax-ns#"
   xmlns:cc="http://creativecommons.org/ns#"
   xmlns:dc="http://purl.org/dc/elements/1.1/">
  <defs
     id="defs1">
    <linearGradient
       id="linearGradient1">
      <stop
         style="stop-color:#001626;stop-opacity:1;"
         offset="0"
         id="stop1" />
      <stop
         style="stop-color:#0070c0;stop-opacity:1;"
         offset="1"
         id="stop2" />
    </linearGradient>
    <linearGradient
       xlink:href="#linearGradient1"
       id="linearGradient2"
       x1="44.939098"
       y1="22.900846"
       x2="52.947372"
       y2="14.892572"
       gradientUnits="userSpaceOnUse"
       gradientTransform="matrix(1.0062577,0,0,1.0062577,-1.1513656,-3.316813)" />
    <linearGradient
       xlink:href="#linearGradient1"
       id="linearGradient7"
       gradientUnits="userSpaceOnUse"
       gradientTransform="matrix(1.0062577,0,0,1.0062577,-4.6930333,-12.25848)"
       x1="44.939098"
       y1="22.900846"
       x2="52.947372"
       y2="14.892572" />
  </defs>
  <metadata
     id="metadata1">
    <rdf:RDF>
      <cc:Work
         rdf:about="">
        <dc:format>image/svg+xml</dc:format>
        <dc:type
           rdf:resource="http://purl.org/dc/dcmitype/StillImage" />
      </cc:Work>
    </rdf:RDF>
  </metadata>
  <g
     id="layer1"
     style="display:none"
     transform="translate(-29.999998,-10.000001)">
    <text
       xml:space="preserve"
       style="font-style:normal;font-variant:normal;font-weight:bold;font-stretch:normal;font-size:15.1045px;font-family:Sans;-inkscape-font-specification:'Sans, Bold';font-variant-ligatures:normal;font-variant-caps:normal;font-variant-numeric:normal;font-variant-east-asian:normal;text-align:start;letter-spacing:-0.714375px;writing-mode:lr-tb;direction:ltr;text-anchor:start;display:inline;fill:#000000;stroke-width:1.261;stroke-dasharray:none"
       x="28.232037"
       y="24.439537"
       id="text1-7"><tspan
         id="tspan1-9"
         style="font-style:normal;font-variant:normal;font-weight:bold;font-stretch:normal;font-size:15.1045px;font-family:Sans;-inkscape-font-specification:'Sans, Bold';font-variant-ligatures:normal;font-variant-caps:normal;font-variant-numeric:normal;font-variant-east-asian:normal;letter-spacing:-0.714375px;stroke-width:1.261;stroke-dasharray:none"
         x="28.232037"
         y="24.439537">MOTSUTECH</tspan></text>
  </g>
  <g
     id="layer5"
     style="display:none"
     transform="translate(-29.999998,-10.000001)">
    <circle
       style="display:inline;fill:#001626;fill-opacity:1;stroke-width:1.18415;stroke-dasharray:none"
       id="path5-4-3"
       cx="47.506687"
       cy="18.930134"
       r="5.6627731" />
    <circle
       style="display:inline;fill:#001626;fill-opacity:1;stroke:none;stroke-width:0.860229;stroke-dasharray:none;stroke-opacity:1"
       id="circle6-6-7"
       cx="47.506687"
       cy="18.930134"
       r="4.11373" />
    <circle
       style="display:inline;fill:#ffffff;fill-opacity:1;stroke:none;stroke-width:0.550311;stroke-dasharray:none;stroke-opacity:1"
       id="circle7-0-8"
       cx="47.506687"
       cy="18.930134"
       r="2.6316628" />
    <rect
       style="display:inline;fill:#1951ea;fill-opacity:1;stroke:none;stroke-width:1.10194;stroke-dasharray:none;stroke-opacity:1"
       id="rect7-6-8"
       width="2.8063302"
       height="15.635267"
       x="46.103519"
       y="11.1125" />
    <rect
       style="display:inline;fill:#1951ea;fill-opacity:1;stroke:none;stroke-width:1.10194;stroke-dasharray:none;stroke-opacity:1"
       id="rect9-6-2"
       width="2.8063302"
       height="15.635267"
       x="17.474159"
       y="-55.345329"
       transform="rotate(90.063676)" />
    <rect
       style="display:inline;fill:#1951ea;fill-opacity:1;stroke:none;stroke-width:1.10194;stroke-dasharray:none;stroke-opacity:1"
       id="rect10-1-9"
       width="2.8063302"
       height="15.635267"
       x="45.573147"
       y="-28.028057"
       transform="rotate(45.004574)" />
    <rect
       style="display:inline;fill:#1951ea;fill-opacity:1;stroke:none;stroke-width:1.10194;stroke-dasharray:none;stroke-opacity:1"
       id="rect11-8-1"
       width="2.8063302"
       height="15.635267"
       x="-21.665787"
       y="-54.771458"
       transform="rotate(135.06825)" />
  </g>
  <g
     id="layer2"
     transform="translate(-29.999998,-10.000001)">
    <g
       id="text2"
       style="font-weight:bold;font-size:15.1045px;font-family:Sans;-inkscape-font-specification:'Sans, Bold';letter-spacing:-0.714375px;stroke-width:1.261"
       aria-label="M TSUTECH">
      <g
         id="g10">
        <path
           style="fill:#001626"
           d="m 40.968213,21.210371 h -1.728258 a 0.54454303,0.54454303 45 0 1 -0.544543,-0.544543 l 0,-6.264032 a 0.11129501,0.11129501 11.551164 0 0 -0.213665,-0.04367 l -1.608237,3.770035 a 0.82431314,0.82431314 146.55116 0 1 -0.758208,0.500874 H 35.249948 A 0.82431314,0.82431314 33.448836 0 1 34.49174,18.128162 l -1.608237,-3.770035 a 0.11129501,0.11129501 168.44884 0 0 -0.213665,0.04367 v 6.264032 a 0.54454303,0.54454303 135 0 1 -0.544543,0.544543 H 30.544543 A 0.54454303,0.54454303 45 0 1 30,20.665828 l 0,-9.892652 a 0.54454303,0.54454303 135 0 1 0.544543,-0.544543 h 2.200273 a 0.84100048,0.84100048 32.922827 0 1 0.767368,0.496866 l 2.025056,4.515575 a 0.24384147,0.24384147 179.96806 0 0 0.445096,-2.48e-4 l 2.01879,-4.515079 a 0.83997376,0.83997376 147.04523 0 1 0.766814,-0.497114 h 2.200273 a 0.54454303,0.54454303 45 0 1 0.544543,0.544543 l 0,9.892652 a 0.54454303,0.54454303 135 0 1 -0.544543,0.544543 z m 22.330628,-8.857668 h -2.340403 a 0.54454303,0.54454303 135 0 0 -0.544543,0.544543 v 7.768582 a 0.54454303,0.54454303 135 0 1 -0.544543,0.544543 l -1.743008,0 a 0.54454303,0.54454303 45 0 1 -0.544543,-0.544543 l 0,-7.768582 A 0.54454303,0.54454303 45 0 0 57.037258,12.352703 H 54.696856 A 0.54454303,0.54454303 45 0 1 54.152313,11.80816 l 0,-1.034984 a 0.54454303,0.54454303 135 0 1 0.544543,-0.544543 h 8.601985 a 0.54454303,0.54454303 45 0 1 0.544543,0.544543 l 0,1.034984 a 0.54454303,0.54454303 135 0 1 -0.544543,0.544543 z m 10.325137,5.406054 c 0,1.081702 -0.459724,1.961814 -1.379171,2.640337 -0.91453,0.673606 -2.158488,1.010409 -3.731873,1.010409 -0.909613,0 -1.703681,-0.07867 -2.382204,-0.236008 C 65.646467,21.056848 65.183804,20.9186 64.742741,20.758753 64.46002,20.656291 64.235292,20.31755 64.235292,20.016807 V 18.47293 a 0.44298927,0.44298927 119.6332 0 1 0.309761,-0.544543 c 0.585103,0.467099 1.239041,0.826028 1.961815,1.076786 0.727691,0.250758 1.42588,0.376137 2.094569,0.376137 0.172089,0 0.398263,-0.01475 0.678522,-0.04425 0.280259,-0.0295 0.508892,-0.07867 0.685898,-0.147505 0.216341,-0.0885 0.393347,-0.199131 0.531018,-0.331886 0.142588,-0.132754 0.213882,-0.329427 0.213882,-0.590019 0,-0.240925 -0.103254,-0.447432 -0.309761,-0.619521 -0.20159,-0.177006 -0.499058,-0.312219 -0.892404,-0.405638 -0.413014,-0.09834 -0.850612,-0.189298 -1.312794,-0.272884 -0.457265,-0.0885 -0.887487,-0.199132 -1.290667,-0.331886 -0.924364,-0.299927 -1.590594,-0.705565 -1.998691,-1.216916 -0.40318,-0.516267 -0.60477,-1.155454 -0.60477,-1.917563 0,-1.022701 0.457265,-1.856103 1.371795,-2.500208 0.919447,-0.649021 2.099486,-0.973532 3.540117,-0.973532 0.722774,0 1.435714,0.07129 2.138821,0.213882 0.487116,0.09472 0.928849,0.206889 1.3252,0.336515 0.285772,0.09346 0.511236,0.430927 0.511236,0.73167 v 1.440623 a 0.44043376,0.44043376 119.04343 0 1 -0.302385,0.544543 c -0.442515,-0.354011 -0.985824,-0.649021 -1.629929,-0.885029 -0.639188,-0.240925 -1.293126,-0.361387 -1.961815,-0.361387 -0.236008,0 -0.472016,0.01721 -0.708024,0.05163 -0.231091,0.0295 -0.454806,0.0885 -0.671147,0.177005 -0.191756,0.07375 -0.35647,0.18684 -0.494141,0.339262 -0.137671,0.147505 -0.206507,0.317135 -0.206507,0.508892 0,0.290093 0.110629,0.513808 0.331886,0.671147 0.221257,0.152421 0.639188,0.292551 1.253791,0.420389 0.40318,0.08359 0.789151,0.164714 1.157914,0.243383 0.373679,0.07867 0.7744,0.186839 1.202165,0.32451 0.840777,0.275343 1.460298,0.65148 1.858561,1.128413 0.40318,0.472015 0.60477,1.086619 0.60477,1.843811 z m 10.842633,-0.523643 c 0,1.357045 -0.413014,2.396955 -1.239041,3.119729 -0.826027,0.722774 -2.042943,1.084161 -3.650746,1.084161 -1.607803,0 -2.824719,-0.361387 -3.650746,-1.084161 -0.821111,-0.722774 -1.231666,-1.760225 -1.231666,-3.112353 v -6.469314 a 0.54454303,0.54454303 135 0 1 0.544543,-0.544543 h 1.757759 a 0.54454303,0.54454303 45 0 1 0.544543,0.544543 v 6.307058 c 0,0.762109 0.159797,1.330003 0.47939,1.703682 0.319594,0.373679 0.83832,0.560518 1.556177,0.560518 0.708023,0 1.22429,-0.179464 1.548801,-0.538393 0.329428,-0.358928 0.494142,-0.934197 0.494142,-1.725807 v -6.307058 a 0.54454303,0.54454303 135 0 1 0.544543,-0.544543 h 1.757758 a 0.54454303,0.54454303 45 0 1 0.544543,0.544543 z"
           id="path7" />
      </g>
      <path
         style="fill:#0070c0"
         d="m 94.625221,12.352703 -2.695716,0 a 0.36688558,0.36688558 135 0 0 -0.366886,0.366886 v 8.123896 a 0.36688558,0.36688558 135 0 1 -0.366886,0.366886 h -2.098322 a 0.36688558,0.36688558 45 0 1 -0.366886,-0.366886 v -8.123896 a 0.36688558,0.36688558 45 0 0 -0.366886,-0.366886 h -2.695716 a 0.36688558,0.36688558 45 0 1 -0.366886,-0.366886 v -1.390298 a 0.36688558,0.36688558 135 0 1 0.366886,-0.366886 l 8.957298,0 a 0.36688558,0.36688558 45 0 1 0.366886,0.366886 l 0,1.390298 a 0.36688558,0.36688558 135 0 1 -0.366886,0.366886 z m 8.932439,8.857668 -7.209359,0 A 0.36688558,0.36688558 45 0 1 95.981415,20.843485 V 10.595519 a 0.36688558,0.36688558 135 0 1 0.366886,-0.366886 h 7.209359 a 0.36688558,0.36688558 45 0 1 0.36689,0.366886 l 0,1.390298 a 0.36688558,0.36688558 135 0 1 -0.36689,0.366886 h -4.392016 a 0.36688558,0.36688558 135 0 0 -0.366886,0.366886 v 1.161666 a 0.36688558,0.36688558 45 0 0 0.366886,0.366886 l 4.023256,0 a 0.36688558,0.36688558 45 0 1 0.36689,0.366886 v 1.390298 a 0.36688558,0.36688558 135 0 1 -0.36689,0.366886 h -4.023256 a 0.36688558,0.36688558 135 0 0 -0.366886,0.366886 v 1.980318 a 0.36688558,0.36688558 45 0 0 0.366886,0.366886 h 4.392016 a 0.36688558,0.36688558 45 0 1 0.36689,0.366886 l 0,1.390298 a 0.36688558,0.36688558 135 0 1 -0.36689,0.366886 z m 6.99089,0.213882 c -0.81619,0 -1.57093,-0.120462 -2.2642,-0.361387 -0.68836,-0.240925 -1.28084,-0.599853 -1.77744,-1.076785 -0.4966,-0.476933 -0.88257,-1.071869 -1.15791,-1.78481 -0.27043,-0.71294 -0.40564,-1.536509 -0.40564,-2.470706 0,-0.870279 0.1303,-1.659431 0.39089,-2.367454 0.26059,-0.708023 0.63919,-1.315252 1.13579,-1.821685 0.47693,-0.486766 1.06694,-0.862903 1.77005,-1.128412 0.70803,-0.265509 1.47997,-0.398263 2.31583,-0.398263 0.46218,0 0.87765,0.02704 1.24642,0.08113 0.37368,0.04917 0.71786,0.115544 1.03253,0.199132 0.32943,0.09342 0.6269,0.199131 0.89241,0.317135 0.13356,0.05585 0.25872,0.109907 0.37549,0.162162 0.18494,0.08276 0.33253,0.319234 0.33253,0.52186 v 1.928691 a 0.34634648,0.34634648 131.49273 0 1 -0.32451,0.366886 c -0.13767,-0.118004 -0.31222,-0.258134 -0.52364,-0.420389 -0.20651,-0.162255 -0.44252,-0.322052 -0.70803,-0.479391 -0.27043,-0.157339 -0.56298,-0.290093 -0.87765,-0.398263 -0.31468,-0.10817 -0.65148,-0.162255 -1.01041,-0.162255 -0.39826,0 -0.77686,0.06392 -1.13579,0.191756 -0.35893,0.122921 -0.69081,0.329427 -0.99566,0.61952 -0.29009,0.280259 -0.52609,0.65148 -0.70802,1.113662 -0.17701,0.462182 -0.26551,1.022701 -0.26551,1.681556 0,0.688356 0.0959,1.263625 0.28764,1.725807 0.19667,0.462182 0.44251,0.826027 0.73752,1.091536 0.29993,0.270426 0.63427,0.464641 1.00303,0.582644 0.36877,0.113087 0.73261,0.169631 1.09154,0.169631 0.34418,0 0.68344,-0.05163 1.01778,-0.15488 0.33927,-0.103253 0.65149,-0.243383 0.93666,-0.420389 0.24093,-0.142588 0.46464,-0.29501 0.67115,-0.457265 0.20651,-0.162255 0.37614,-0.302385 0.50889,-0.420389 a 0.33289332,0.33289332 51.197494 0 1 0.29501,0.366886 v 1.891815 c 0,0.202626 -0.14995,0.43395 -0.33538,0.515639 -0.15548,0.0685 -0.30674,0.134458 -0.45377,0.197883 -0.25076,0.108171 -0.51381,0.201591 -0.78915,0.28026 -0.35893,0.103253 -0.69574,0.181922 -1.01041,0.236007 -0.31468,0.05409 -0.74736,0.08113 -1.29804,0.08113 z m 14.73125,-0.213882 -2.09831,0 a 0.36688558,0.36688558 45 0 1 -0.36689,-0.366886 v -4.104388 a 0.36688558,0.36688558 45 0 0 -0.36689,-0.366886 h -3.44798 a 0.36688558,0.36688558 135 0 0 -0.36689,0.366886 v 4.104388 a 0.36688558,0.36688558 135 0 1 -0.36689,0.366886 h -2.09832 a 0.36688558,0.36688558 45 0 1 -0.36689,-0.366886 V 10.595519 a 0.36688558,0.36688558 135 0 1 0.36689,-0.366886 h 2.09832 a 0.36688558,0.36688558 45 0 1 0.36689,0.366886 v 3.285736 a 0.36688558,0.36688558 45 0 0 0.36689,0.366886 h 3.44798 a 0.36688558,0.36688558 135 0 0 0.36689,-0.366886 v -3.285736 a 0.36688558,0.36688558 135 0 1 0.36689,-0.366886 h 2.09831 a 0.36688558,0.36688558 45 0 1 0.36689,0.366886 v 10.247966 a 0.36688558,0.36688558 135 0 1 -0.36689,0.366886 z"
         id="path8" />
    </g>
    <path
       d="m 48.098139,10 c -0.476181,5.7e-5 -0.950476,0.0598 -1.411795,0.17784 l -0.182959,1.124887 c -0.128927,0.04687 -0.25573,0.0994 -0.380039,0.157419 h -5.87e-4 l -0.92413,-0.667669 c -0.823101,0.486659 -1.5105,1.172626 -1.998872,1.994713 l 0.665089,0.925583 v 5.87e-4 c -0.05916,0.125991 -0.112666,0.25456 -0.160355,0.385325 l -1.125092,0.181386 c -0.11908,0.463275 -0.179354,0.9397 -0.179399,1.418035 2.6e-5,0.474201 0.05924,0.946543 0.17628,1.406074 l 1.124686,0.184031 c 0.04775,0.132364 0.101455,0.262504 0.160944,0.390024 l -0.665793,0.924629 c 0.487302,0.822721 1.173806,1.509583 1.996273,1.997313 l 0.925082,-0.666379 c 0.126194,0.05898 0.25496,0.112287 0.385913,0.159768 l 0.182959,1.124889 c 0.461319,0.118036 0.935614,0.177781 1.411795,0.177839 0.47618,-5.8e-5 0.950475,-0.0598 1.411794,-0.177839 l 0.182959,-1.124889 c 0.128928,-0.04687 0.25573,-0.0994 0.380039,-0.157419 h 5.87e-4 l 0.92413,0.667669 c 0.823102,-0.486658 1.5105,-1.172626 1.998873,-1.994712 L 52.33143,17.683521 v -5.88e-4 c 0.05915,-0.125798 0.11265,-0.254171 0.160357,-0.384736 l 1.125091,-0.181957 c 0.119081,-0.463275 0.179355,-0.9397 0.179399,-1.418034 -6.7e-5,-0.474027 -0.05929,-0.946192 -0.176279,-1.405555 l -1.124686,-0.18453 c -0.04775,-0.132364 -0.101455,-0.262504 -0.160944,-0.390024 L 53.00016,12.793463 C 52.512794,11.970921 51.826295,11.28423 51.003888,10.796637 l -0.925083,0.665859 c -0.126194,-0.05898 -0.25496,-0.112287 -0.385913,-0.159769 L 49.509933,10.17784 C 49.048614,10.059803 48.574319,10.000057 48.098139,10 Z m 0.705063,2.591359 c 0.35209,0.07994 0.688031,0.219134 0.993469,0.411652 0.403456,0.254309 0.744671,0.595952 0.998475,0.999725 0.19182,0.304756 0.330586,0.639826 0.4104,0.990968 0.0524,0.231149 0.07883,0.467423 0.07882,0.704437 -1.24e-4,0.238315 -0.02699,0.475866 -0.08008,0.70819 -0.08032,0.352169 -0.219947,0.688115 -0.412904,0.99347 -0.253461,0.401094 -0.593307,0.740513 -0.99472,0.993469 -0.306505,0.193348 -0.643751,0.332985 -0.997222,0.412903 h -6.26e-4 c -0.229949,0.05191 -0.464948,0.07814 -0.700683,0.07821 -0.237247,-1.5e-4 -0.473733,-0.0268 -0.705063,-0.07945 -0.352089,-0.07994 -0.688031,-0.219134 -0.99347,-0.411652 -0.403387,-0.254131 -0.744597,-0.595553 -0.998474,-0.9991 -0.191665,-0.304989 -0.330222,-0.640273 -0.409776,-0.991593 -0.05261,-0.231125 -0.07925,-0.4674 -0.07945,-0.704436 1.24e-4,-0.238317 0.02699,-0.475866 0.08009,-0.708192 0.08032,-0.352169 0.219947,-0.688113 0.412904,-0.993469 0.253461,-0.401093 0.593308,-0.740513 0.99472,-0.993469 0.306697,-0.193413 0.64416,-0.333053 0.997848,-0.412903 0.229949,-0.05191 0.471354,-0.07129 0.701419,-0.07839 0.230065,-0.007 0.472998,0.02698 0.704327,0.07963 z"
       style="fill:url(#linearGradient2);stroke-width:1.10884"
       id="path1" />
  </g>
  <g
     id="layer3"
     style="display:none"
     transform="translate(-29.999998,-10.000001)">
    <text
       xml:space="preserve"
       style="font-style:normal;font-variant:normal;font-weight:bold;font-stretch:normal;font-size:15.1045px;font-family:Sans;-inkscape-font-specification:'Sans, Bold';font-variant-ligatures:normal;font-variant-caps:normal;font-variant-numeric:normal;font-variant-east-asian:normal;text-align:start;letter-spacing:-0.714375px;writing-mode:lr-tb;direction:ltr;text-anchor:start;display:inline;fill:#000000;stroke-width:1.261;stroke-dasharray:none"
       x="25.057035"
       y="12.268704"
       id="text2-1"><tspan
         id="tspan2-5"
         style="font-style:normal;font-variant:normal;font-weight:bold;font-stretch:normal;font-size:15.1045px;font-family:Sans;-inkscape-font-specification:'Sans, Bold';font-variant-ligatures:normal;font-variant-caps:normal;font-variant-numeric:normal;font-variant-east-asian:normal;letter-spacing:-0.714375px;stroke-width:1.261;stroke-dasharray:none"
         x="25.057035"
         y="12.268704"><tspan
           style="fill:#001626;fill-opacity:1"
           id="tspan4-2">M<tspan
   style="letter-spacing:6.48758px"
   id="tspan6-7"> </tspan>TSU</tspan><tspan
           style="fill:#0070c0;fill-opacity:1"
           id="tspan3-6">TECH</tspan></tspan></text>
    <path
       d="m 44.556471,1.0583333 c -0.476181,5.7e-5 -0.950476,0.0598 -1.411795,0.17784 l -0.182959,1.124887 c -0.128927,0.04687 -0.25573,0.0994 -0.380039,0.157419 h -5.87e-4 l -0.92413,-0.667669 c -0.823101,0.486659 -1.5105,1.172626 -1.998872,1.994713 l 0.665089,0.925583 v 5.87e-4 c -0.05916,0.125991 -0.112666,0.25456 -0.160355,0.385325 l -1.125092,0.181386 c -0.11908,0.463275 -0.179354,0.9397 -0.179399,1.418035 2.6e-5,0.474201 0.05924,0.946543 0.17628,1.406074 l 1.124686,0.184031 c 0.04775,0.132364 0.101455,0.262504 0.160944,0.390024 l -0.665793,0.924629 c 0.487302,0.8227207 1.173806,1.5095827 1.996273,1.9973127 l 0.925082,-0.666379 c 0.126194,0.05898 0.25496,0.112287 0.385913,0.159768 l 0.182959,1.124889 c 0.461319,0.118036 0.935614,0.177781 1.411795,0.177839 0.47618,-5.8e-5 0.950475,-0.0598 1.411794,-0.177839 l 0.182959,-1.124889 c 0.128928,-0.04687 0.25573,-0.0994 0.380039,-0.157419 h 5.87e-4 l 0.92413,0.667669 c 0.823102,-0.486658 1.5105,-1.172626 1.998873,-1.9947117 l -0.665091,-0.925583 v -5.88e-4 c 0.05915,-0.125798 0.11265,-0.254171 0.160357,-0.384736 l 1.125091,-0.181957 c 0.119081,-0.463275 0.179355,-0.9397 0.179399,-1.418034 -6.7e-5,-0.474027 -0.05929,-0.946192 -0.176279,-1.405555 l -1.124686,-0.18453 C 48.905894,5.0340903 48.852189,4.9039503 48.7927,4.7764303 l 0.665792,-0.924634 C 48.971126,3.0292543 48.284627,2.3425633 47.46222,1.8549703 l -0.925083,0.665859 c -0.126194,-0.05898 -0.25496,-0.112287 -0.385913,-0.159769 l -0.182959,-1.124887 c -0.461319,-0.118037 -0.935614,-0.177783 -1.411794,-0.17784 z m 0.705063,2.591359 c 0.35209,0.07994 0.688031,0.219134 0.993469,0.411652 0.403456,0.254309 0.744671,0.595952 0.998475,0.999725 0.19182,0.304756 0.330586,0.639826 0.4104,0.990968 0.0524,0.231149 0.07883,0.467423 0.07882,0.704437 -1.24e-4,0.238315 -0.02699,0.475866 -0.08008,0.70819 -0.08032,0.352169 -0.219947,0.688115 -0.412904,0.99347 -0.253461,0.401094 -0.593307,0.740513 -0.99472,0.993469 -0.306505,0.193348 -0.643751,0.332985 -0.997222,0.412903 h -6.26e-4 c -0.229949,0.05191 -0.464948,0.07814 -0.700683,0.07821 -0.237247,-1.5e-4 -0.473733,-0.0268 -0.705063,-0.07945 -0.352089,-0.07994 -0.688031,-0.219134 -0.99347,-0.411652 -0.403387,-0.254131 -0.744597,-0.595553 -0.998474,-0.9991 -0.191665,-0.304989 -0.330222,-0.640273 -0.409776,-0.991593 -0.05261,-0.231125 -0.07925,-0.4674 -0.07945,-0.704436 1.24e-4,-0.238317 0.02699,-0.475866 0.08009,-0.708192 0.08032,-0.352169 0.219947,-0.688113 0.412904,-0.993469 0.253461,-0.401093 0.593308,-0.740513 0.99472,-0.993469 0.306697,-0.193413 0.64416,-0.333053 0.997848,-0.412903 0.229949,-0.05191 0.471354,-0.07129 0.701419,-0.07839 0.230065,-0.007 0.472998,0.02698 0.704327,0.07963 z"
       style="fill:url(#linearGradient7);stroke-width:1.10884"
       id="path1-1" />
  </g>
</svg>
